<?xml version="1.0" encoding="UTF-8" standalone="no"?>
<svg
   xmlns:dc="http://purl.org/dc/elements/1.1/"
   xmlns:cc="http://creativecommons.org/ns#"
   xmlns:rdf="http://www.w3.org/1999/02/22-rdf-syntax-ns#"
   xmlns:svg="http://www.w3.org/2000/svg"
   xmlns="http://www.w3.org/2000/svg"
   viewBox="0 0 1440 1440"
   height="1440"
   width="1440"
   xml:space="preserve"
   id="svg2"
   version="1.1"><metadata
     id="metadata8"><rdf:RDF><cc:Work
         rdf:about=""><dc:format>image/svg+xml</dc:format><dc:type
           rdf:resource="http://purl.org/dc/dcmitype/StillImage" /></cc:Work></rdf:RDF></metadata><defs
     id="defs6"><clipPath
       id="clipPath18"
       clipPathUnits="userSpaceOnUse"><path
         id="path16"
         d="M 0,1080 H 1080 V 0 H 0 Z" /></clipPath></defs><g
     transform="matrix(1.3333333,0,0,-1.3333333,0,1440)"
     id="g10"><g
       id="g12"><g
         clip-path="url(#clipPath18)"
         id="g14"><g
           transform="translate(2.142,860)"
           id="g20"><path
             id="path22"
             style="fill:#fef8fe;fill-opacity:1;fill-rule:nonzero;stroke:none"
             d="m 0,0 c 0.455,-0.085 0.809,-0.171 0.809,-0.256 0.269,-263.276 0.274,-537.032 0.008,-800.36 0,-0.192 -0.358,-0.383 -0.817,-0.575 -0.494,-0.081 -1.089,0.038 -1.619,0 L -1.619,0 Z" /></g><g
           transform="translate(3.761,860)"
           id="g24"><path
             id="path26"
             style="fill:#f9fef5;fill-opacity:1;fill-rule:nonzero;stroke:none"
             d="m 0,0 0.015,-800.705 c 0.094,-0.898 -1.051,-0.39 -1.634,-0.486 V 0 Z" /></g><g
           transform="translate(361.8817,520.3168)"
           id="g28"><path
             id="path30"
             style="fill:#010101;fill-opacity:1;fill-rule:nonzero;stroke:none"
             d="m 0,0 c 8.266,36.284 17.935,78.544 22.652,115.336 0.481,3.749 -1.704,9.843 3.838,10.769 5.914,0.988 4.415,-10.098 4.308,-14.058 -1.314,-48.711 2.905,-97.645 4.048,-146.403 0.121,-5.155 0.864,-18.813 -1.753,-22.597 -1.492,-2.157 -3.928,-2.153 -5.88,-0.59 -2.057,1.646 -0.407,28.938 -0.467,33.703 -0.419,33.216 -1.365,66.536 -1.652,99.913 -0.745,3.465 -0.745,6.702 0,9.711 -0.57,1.86 -1.11,2.399 -1.619,1.619 1.103,-1.57 1.103,-2.649 0,-3.237 C 20.463,59.367 16.303,34.584 10.293,10.346 8.983,5.065 5.906,-1.38 5.049,-6.262 4.311,-10.466 4.692,-30.019 -3.505,-27.433 c -4.043,1.275 -4.169,22.153 -4.812,26.806 -2.732,19.746 -9.179,39.93 -12.314,59.715 l -8.501,34.784 c -0.203,-1.761 -0.729,-3.432 -0.85,-5.224 -2.3,-33.902 -0.808,-76.482 -0.007,-110.942 0.166,-7.147 1.979,-16.517 1.713,-23.437 -0.402,-10.456 -7.392,-6.881 -8.181,1.594 -1.019,10.947 0.806,22.335 0.879,33.173 0.078,11.617 -0.878,23.339 -0.887,34.799 -0.023,31.802 0.895,63.451 0.481,95.173 5.91,8.075 8.907,-4.945 10.481,-9.759 C -15.188,77.7 -7.356,33.959 -1.619,0.809 -0.743,-1.38 -0.204,-1.65 0,0" /></g><g
           transform="translate(427.9637,640.6317)"
           id="g32"><path
             id="path34"
             style="fill:#000000;fill-opacity:1;fill-rule:nonzero;stroke:none"
             d="m 0,0 c 13.963,0.968 26.13,-9.295 30.015,-22.217 6.102,-20.299 -1.987,-36.429 -12.595,-53.06 8.322,-12.594 20.602,-22.995 21.76,-38.937 1.082,-14.881 -0.09,-37.611 -11.34,-48.612 -4.964,-4.855 -18.635,-11.594 -25.522,-11.779 -5.598,-0.151 -7.783,0.569 -8.044,6.138 -1.063,22.74 1.29,47.335 1.202,70.446 -0.104,27.401 -3.792,59.714 -1.687,86.584 C -5.887,-7.309 -5.03,-0.349 0,0" /></g><g
           transform="translate(802.1215,470.2568)"
           id="g36"><path
             id="path38"
             style="fill:#010101;fill-opacity:1;fill-rule:nonzero;stroke:none"
             d="m 0,0 c -1.197,-0.764 -6.022,0.159 -6.829,1.498 2.246,7.274 4.183,14.921 5.744,22.646 7.86,38.893 12.721,79.786 21.826,118.185 1.334,5.625 5.352,23.256 8.884,26.735 1.909,1.882 3.592,1.74 5.727,-0.016 2.873,-2.365 3.922,-17.051 4.415,-21.476 3.129,-28.088 3.534,-56.672 8.108,-84.153 L 50.277,1.12 c -0.891,-3.301 -4.161,-4.643 -7.245,-3.239 -3.697,1.684 -1.374,4.176 -1.568,6.453 -0.163,1.923 -0.836,3.708 -0.913,5.633 -0.171,4.281 0.911,20.498 -0.713,22.757 -2.412,3.353 -27.37,7.485 -30.48,5.259 C 5.201,35.009 2.671,1.704 0,0" /></g><g
           transform="translate(556.9634,559.1625)"
           id="g40"><path
             id="path42"
             style="fill:#010101;fill-opacity:1;fill-rule:nonzero;stroke:none"
             d="m 0,0 c 0.572,-17.845 -1.004,-36.238 -9.491,-52.211 3.68,-4.794 9.416,-8.649 15.556,-9.298 2.976,-0.314 11.584,1.672 12.499,-1.295 1.452,-4.711 -11.21,-3.786 -13.918,-3.363 -4.888,0.763 -15.344,8.008 -17.126,7.914 -1.896,-0.101 -10.62,-5.987 -14.052,-7.075 -15.668,-4.97 -29.633,1.73 -36.757,16.216 -7.707,15.671 -3.535,40.813 2.771,56.608 2.907,7.283 12.086,20.843 13.382,27.078 1.16,5.578 -1.315,19.985 -1.465,26.494 -0.193,8.331 -1.391,29.126 2.595,35.508 3.136,5.022 6.115,4.198 11.177,2.54 4.422,-1.449 10.773,-5.524 11.34,-10.582 0.268,-2.398 -0.678,-15.493 -1.16,-18.166 -0.914,-5.067 -6.748,-19.866 -9.199,-24.793 -3.954,-7.948 -7.973,-8.942 -7.463,-19.308 0.727,-14.774 12.501,-52.8 19.846,-65.936 1.801,-3.221 4.267,-8.45 8.502,-8.075 3.226,9.444 6.18,18.727 7.285,28.737 0.364,3.298 1.247,12.581 0.854,15.405 -0.788,5.661 -6.714,1.591 -5.698,7.638 L 15.613,7.121 C 17.867,6.81 19.691,4.504 18.258,2.383 18.024,2.038 12.138,0 11.737,0 Z" /></g><g
           transform="translate(683.2404,563.2089)"
           id="g44"><path
             id="path46"
             style="fill:#010101;fill-opacity:1;fill-rule:nonzero;stroke:none"
             d="m 0,0 v -95.091 c 0,-1.565 -4.709,-3.183 -6.561,-0.88 -1.247,1.551 0.074,7.271 0.108,9.734 0.55,39.937 -0.49,79.916 -0.056,119.856 0.134,12.31 1.267,24.768 0.876,37.227 -0.237,7.561 -3.625,9.528 7.649,8.453 C 21.051,77.485 25.115,46.2 22.424,31.398 20.871,22.851 12.939,8.006 13.009,1.34 c 0.18,-17.24 11.347,-52.437 16.539,-70.126 1.617,-5.508 7.104,-17.787 7.42,-22.361 0.522,-7.53 -5.758,-8.949 -8.422,-2.92 -1.637,3.705 -2.345,12.519 -3.682,17.36 -2.698,9.761 -6.531,19.246 -8.938,29.101 C 12.055,-31.76 10.815,-15.016 5.704,0.446 4.068,1.548 1.771,0.296 0,0" /></g><g
           transform="translate(751.6404,632.8073)"
           id="g48"><path
             id="path50"
             style="fill:#010101;fill-opacity:1;fill-rule:nonzero;stroke:none"
             d="m 0,0 c -0.439,-0.074 -1.265,-0.803 -1.896,-0.945 -0.203,-10.042 0.338,-20.166 0.648,-30.246 0.378,-12.284 0.045,-24.099 0.081,-36.434 0.005,-1.799 -1.734,-4.255 0.963,-4.239 3.94,0.025 12.6,4.656 15.225,0.293 6.349,-10.552 -14.957,-2.847 -16.233,-9.76 -0.954,-5.169 1.51,-13.21 1.617,-18.615 0.029,-1.509 -0.859,-3.106 -0.847,-4.824 0.113,-15.495 -1.695,-37.2 0.849,-51.823 0.599,-3.442 3.533,-1.243 6.036,-1.178 3.283,0.085 18.343,0.968 19.018,-2.961 1.202,-6.996 -28.155,-6.76 -32.544,-4.97 -5.593,2.281 -0.621,9.045 -0.607,13.151 0.094,27.675 -1.134,55.619 -1.165,83.357 -0.016,14.794 1.997,31.813 1.204,46.169 -0.32,5.789 -4.213,20.328 -2.65,24.418 0.214,0.562 3.134,5.329 3.413,5.494 2.634,1.565 20.687,2.72 23.097,0.42 C 18.863,4.775 16.353,0 13.761,0 9.83,0 3.517,0.591 0,0" /></g><g
           transform="translate(947.5316,632.8073)"
           id="g52"><path
             id="path54"
             style="fill:#010101;fill-opacity:1;fill-rule:nonzero;stroke:none"
             d="m 0,0 c -0.439,-0.074 -1.265,-0.803 -1.896,-0.945 -0.119,-10.038 0.346,-20.166 0.648,-30.246 0.368,-12.28 0.05,-24.102 0.08,-36.434 0.005,-1.809 -1.733,-4.236 0.955,-4.234 4.131,0.003 12.652,4.58 15.234,0.287 5.867,-9.754 -11.299,-3.996 -15.234,-7.928 -2.633,-2.63 0.539,-16.307 0.618,-20.446 0.031,-1.661 -0.862,-3.523 -0.849,-5.627 0.038,-6.642 -0.724,-51.019 1.607,-52.707 3.885,-0.103 23.461,2.423 24.298,-2.452 1.201,-6.996 -28.155,-6.76 -32.544,-4.97 -5.593,2.281 -0.621,9.045 -0.607,13.151 0.127,37.385 -1.179,74.963 -0.848,112.53 0.049,5.513 1.215,11.035 0.887,16.996 -0.333,6.049 -4.204,19.934 -2.66,24.426 0.297,0.864 2.888,5.159 3.44,5.468 2.808,1.569 20.629,2.778 23.08,0.438 C 18.863,4.775 16.353,0 13.761,0 9.83,0 3.517,0.591 0,0" /></g><g
           transform="translate(653.2095,479.7699)"
           id="g56"><path
             id="path58"
             style="fill:#010101;fill-opacity:1;fill-rule:nonzero;stroke:none"
             d="m 0,0 c 2.885,-12.65 -19.512,-17.248 -28.297,-15.739 -25.333,4.354 -25.031,38.398 -26.66,58.316 -2.413,29.509 -2.256,55.551 -0.816,84.968 0.143,2.913 -1.097,6.407 -0.708,10.422 1.603,16.559 17.605,26.661 33.492,26.235 4.082,-0.109 15.003,-3.73 13.999,-9.035 -0.886,-4.683 -6.719,-0.257 -8.511,0.119 -39.046,8.186 -30.935,-33.861 -31.762,-57.718 -0.962,-27.771 -0.988,-55.401 4.269,-83.067 C -41.912,-1.72 -34.45,-9.873 -16.736,-6.169 -9.208,-4.595 -7.373,1.011 0,0" /></g><g
           transform="translate(195.8588,479.7686)"
           id="g60"><path
             id="path62"
             style="fill:#010101;fill-opacity:1;fill-rule:nonzero;stroke:none"
             d="m 0,0 c 2.791,-12.426 -19.778,-17.392 -28.464,-15.906 -13.882,2.375 -20.856,15.474 -23.025,27.96 -6.439,37.069 -6.111,78.135 -4.282,115.492 0.142,2.913 -1.097,6.407 -0.709,10.423 1.591,16.428 17.894,26.584 33.493,26.398 4.001,-0.047 14.956,-4.084 13.999,-9.2 -0.922,-4.934 -6.876,-0.256 -8.496,0.136 -8.28,2.004 -19.462,0.756 -25.316,-5.925 -9.796,-11.182 -5.958,-37.28 -6.462,-51.809 -0.959,-27.681 -0.955,-55.518 4.25,-83.086 3.058,-16.197 10.645,-24.358 28.277,-20.651 C -9.443,-4.634 -6.895,0.748 0,0" /></g><g
           transform="translate(296.9213,641.5135)"
           id="g64"><path
             id="path66"
             style="fill:#010101;fill-opacity:1;fill-rule:nonzero;stroke:none"
             d="m 0,0 c 1.061,-0.918 1.598,-4.985 0.249,-5.924 -2.333,-1.623 -10.132,1.838 -11.835,-3.54 -0.538,-1.7 -1.059,-7.203 -1.196,-9.324 -0.479,-7.371 0.618,-14.681 0.835,-21.893 1.244,-41.448 5.745,-82.654 4.861,-124.221 3.658,-0.201 15.008,1.678 14.29,-4.473 -0.084,-0.722 -2.718,-3.221 -3.535,-3.467 -2.659,-0.802 -5.63,1.083 -8.668,0.641 -2.541,-0.37 -3.406,-2.609 -6.515,-2.482 -1.828,0.075 -2.917,1.263 -4.263,1.496 -2.762,0.479 -15.554,0.857 -12.001,5.919 1.518,2.162 10.146,-0.887 12.65,1.916 2.21,2.474 1.69,11.133 1.609,14.655 -0.657,28.53 -3.405,57.205 -4.12,85.712 -0.391,15.631 2.205,39.04 -0.018,53.391 -1.02,6.582 -5.602,0.954 -9.93,2.032 -2.319,0.577 -0.855,4.521 1.297,5.9 C -22.744,-1.39 -3.028,2.62 0,0" /></g><g
           transform="translate(222.5199,643.9969)"
           id="g68"><path
             id="path70"
             style="fill:#010101;fill-opacity:1;fill-rule:nonzero;stroke:none"
             d="m 0,0 c 0.488,-0.293 1.668,-4.129 1.776,-5.1 1.865,-16.861 -0.438,-39.056 -0.057,-56.703 0.634,-29.382 2.282,-58.747 4.114,-88.146 1.162,-4.394 -2.211,-15.492 0.021,-18.593 3.524,-4.893 20.599,4.554 21.07,-4.104 0.105,-1.918 -0.384,-3.577 -2.259,-4.322 -4.657,0.592 -10.618,1.277 -15.242,0.704 -3.415,-0.424 -7.654,-4.554 -10.93,-1.251 -2.372,2.391 1.293,20.667 0.055,25.139 C -3.427,-102.971 -5.389,-53.04 -6.35,-3.488 -6.425,0.369 -2.719,1.632 0,0" /></g><g
           transform="translate(916.2603,635.3369)"
           id="g72"><path
             id="path74"
             style="fill:#010101;fill-opacity:1;fill-rule:nonzero;stroke:none"
             d="m 0,0 c -2.029,-3.254 -15.814,2.943 -16.893,-2.933 0.483,-8.116 0.589,-16.182 0.777,-24.313 0.439,-18.978 -0.667,-38.312 0.852,-57.417 1.743,-21.932 2.09,-40.949 2.386,-63.166 0.059,-4.43 1.307,-8.738 0.835,-13.716 -1.075,-11.348 -8.009,-9.453 -8.93,0.768 -0.606,6.725 0.648,17.015 0.851,24.303 1.015,36.471 -1.3,73.336 -1.932,109.934 -0.063,3.605 -0.513,21.255 -2.902,22.828 -3.504,2.307 -19.388,-3.902 -18.708,3.196 0.207,2.159 4.482,2.978 6.356,3.426 C -31.839,4.218 -6.28,7.687 -2.34,5.949 -0.541,5.156 1.019,1.634 0,0" /></g><g
           transform="translate(386.9752,606.1009)"
           id="g76"><path
             id="path78"
             style="fill:#8f8f8f;fill-opacity:1;fill-rule:nonzero;stroke:none"
             d="m 0,0 c 0.126,-3.215 -0.028,-6.49 0,-9.711 -1.596,1.284 -0.564,4.17 -0.773,6.139 -0.11,1.034 -0.836,1.831 -0.846,1.953 -0.085,1.037 -0.032,2.189 0,3.238 C -1.043,2.852 -0.504,2.312 0,0" /></g><g
           transform="translate(361.8817,520.3168)"
           id="g80"><path
             id="path82"
             style="fill:#9e9e9e;fill-opacity:1;fill-rule:nonzero;stroke:none"
             d="m 0,0 c -0.258,-1.132 0.554,-3.213 -0.401,-4.042 -1.822,1.199 -0.942,3.259 -1.218,4.851 z" /></g><g
           transform="translate(385.3563,607.7195)"
           id="g84"><path
             id="path86"
             style="fill:#666666;fill-opacity:1;fill-rule:nonzero;stroke:none"
             d="M 0,0 C 0.025,0.807 -0.026,1.622 0.004,2.423 L 1.615,2.424 C 1.663,1.084 1.566,-0.277 1.619,-1.619 Z" /></g><g
           transform="translate(429.9119,556.7015)"
           id="g88"><path
             id="path90"
             style="fill:#fefefe;fill-opacity:1;fill-rule:nonzero;stroke:none"
             d="m 0,0 c 7.646,1.19 10.21,4.108 16.892,-1.252 13.383,-10.734 15.311,-39.032 13.819,-54.946 -0.914,-9.758 -7.8,-15.782 -15.754,-20.667 -3.161,-1.941 -13.491,-8.129 -14.221,-2.045 -1.885,15.725 0.403,37.673 0.072,54.293 -0.038,1.914 -0.828,3.684 -0.876,5.599 C -0.229,-12.693 0.086,-6.319 0,0" /></g><g
           transform="translate(429.8807,567.2537)"
           id="g92"><path
             id="path94"
             style="fill:#fefefe;fill-opacity:1;fill-rule:nonzero;stroke:none"
             d="M 0,0 C -0.195,4.436 0.239,8.951 0.03,13.388 -0.601,26.733 -2.379,45.678 -0.833,58.694 0.823,72.629 16.562,62.232 20.885,54.471 27.368,42.834 23.803,32.19 19.221,20.841 15.693,12.099 11.118,0.012 0,0" /></g><g
           transform="translate(842.5927,513.1486)"
           id="g96"><path
             id="path98"
             style="fill:#fefefe;fill-opacity:1;fill-rule:nonzero;stroke:none"
             d="M 0,0 C -1.576,-2.518 -30.009,0.151 -30.681,2.845 L -10.4,109.132 c 1.245,0.016 1.135,-2.851 1.339,-3.905 C -2.473,71.071 -0.797,34.662 0,0" /></g><g
           transform="translate(510.814,582.6298)"
           id="g100"><path
             id="path102"
             style="fill:#fefefe;fill-opacity:1;fill-rule:nonzero;stroke:none"
             d="m 0,0 c 3.437,-21.02 6.944,-43.914 17.975,-62.56 1.832,-3.095 11.179,-13.232 11.184,-14.739 0.016,-4.17 -12.389,-7.992 -15.88,-8.396 C 0.503,-87.172 -8.216,-81.62 -12.748,-69.808 -21.079,-48.094 -14.194,-17.891 0,0" /></g><g
           transform="translate(514.0616,647.779)"
           id="g104"><path
             id="path106"
             style="fill:#fdfdfd;fill-opacity:1;fill-rule:nonzero;stroke:none"
             d="M 0,0 C 0.491,2.235 3.987,6.158 6.679,5.915 14.014,5.253 14.158,-5.06 13.795,-10.555 13.363,-17.102 6.615,-39.039 2.431,-43.704 1.687,-44.534 0,-45.392 0,-43.701 Z" /></g><g
           transform="translate(683.2444,570.4962)"
           id="g108"><path
             id="path110"
             style="fill:#fefefe;fill-opacity:1;fill-rule:nonzero;stroke:none"
             d="m 0,0 c -1.077,8.422 -0.974,17.008 -0.847,25.522 0.153,10.3 -0.371,26.915 0.804,36.423 0.519,4.197 4.052,3.11 6.925,1.181 10.57,-7.1 10.952,-40.381 5.579,-50.909 C 11.63,10.591 1.796,-2.089 0,0" /></g></g></g></g></svg>